<?xml version="1.0" encoding="utf-8"?>
<!-- Generator: Adobe Illustrator 24.1.1, SVG Export Plug-In . SVG Version: 6.00 Build 0)  -->
<svg version="1.1" id="Layer_1" xmlns="http://www.w3.org/2000/svg" xmlns:xlink="http://www.w3.org/1999/xlink" x="0px" y="0px"
	 viewBox="0 0 717.9 143.5" style="enable-background:new 0 0 717.9 143.5;" xml:space="preserve">
<style type="text/css">
	.st0{fill:none;}
	.st1{fill:#FFFFFF;}
	.st2{fill:#00B5DF;}
	.st3{fill:#121718;}
	.st4{fill:#E66C27;}
</style>
<g>
	<path class="st0" d="M266.9,23.7l-1.2-1.1c0.3,0.4,0.5,0.8,0.8,1.1H266.9z"/>
	<path class="st0" d="M230.3,23.7C230.3,23.7,230.3,23.7,230.3,23.7c-0.2-0.3-0.5-0.5-0.8-0.8l0,0.8L230.3,23.7z"/>
	<polygon class="st0" points="556.3,15.1 556,14.6 555.7,15.1 	"/>
	<path class="st1" d="M160,76c0.7,0.7,1.5,1,2.5,1c1.8,0,4.4-1.3,6.2-3v-7.4c-6,0.7-9.7,3.3-9.7,6.9C159,74.4,159.4,75.3,160,76z"/>
	<path class="st1" d="M101.2,35c0-6.3-0.1-6.5-0.8-7.8c-0.7-1.3-2.2-2-4.2-2c-3.4,0-6.5,0.8-6.5,10.7v40.6c0,9.5,1,11.2,5.6,14.6
		l5.9,4.5V35z"/>
	<path class="st1" d="M62.7,35.9c0-3.5-0.2-8.4-1.6-9.8c-0.6-0.6-1.8-0.9-3.8-0.9c-2.4,0-6.5,0-6.5,11.5v39.8c0,9.1,0.7,11,5.6,14.6
		l6.3,4.6V35.9z"/>
	<path class="st1" d="M229.6,96.3l1.9,1.2c3.4,2.2,5.5,3.1,9.4,2.9c10.3-0.5,14.8-9,19.2-17.3c0.6-1,1.1-2.1,1.6-3.1l-10.9-30.6
		c-0.8-2.5-1.7-4.8-2.6-6.9v7.5l-4-2.3c-2.8-1.6-3.5-1.8-5.3-2.3c-2.8-0.7-8.3,1.3-9.8,3.1c-2.1,2.5-2.7,4.8-2.7,10.9l0.1,20.2
		c0,8.1,1,9.1,5,11.8l7,4.7L229.6,96.3L229.6,96.3z"/>
	<path class="st1" d="M325.1,42.1h2.5c5.3,0,9.7-1.1,11.3-2.8c1.3-1.4,2-3.4,2-6.2c0-2.9-0.6-4.9-1.9-6.1c-2.8-2.8-5.4-2.9-11.4-2.9
		h-2.5V42.1z"/>
	<path class="st1" d="M342.9,73.1c0-3.2-0.7-5.5-2.2-7.1c-1.7-1.8-6.1-2.9-11.2-2.9h-4.4v20.3h4.4c5.1,0,9.4-1.1,11.1-2.9
		C342.2,78.8,342.9,76.4,342.9,73.1z"/>
	<path class="st1" d="M446.8,61.6c2.7,2.7,6.4,4.3,10.3,4.3c8,0,14.5-6.5,14.5-14.5c0-3.8-1.5-7.5-4.2-10.2
		c-2.7-2.7-6.4-4.3-10.3-4.3c-3.9,0-7.5,1.5-10.3,4.3c-2.7,2.7-4.2,6.3-4.2,10.2C442.6,55.3,444.1,58.9,446.8,61.6z"/>
	<path class="st1" d="M399.7,41.8c0.9-0.9,1.4-2.3,1.4-3.9s-0.5-3-1.4-3.9c-1.2-1.2-3.1-1.8-5.5-1.8H392v11.4h2.2
		C396.6,43.5,398.5,42.9,399.7,41.8z"/>
	<path class="st2" d="M395.8,85.4c-4.1-3.4-5.2-8.8-5.2-9.1L390.3,60l1.6,3.6c10.8,24.2,37,26.2,47.5,25.8
		c-14.1-6.3-29.8-32.5-30.5-33.7l-0.5-0.8l0.9-0.3C421.6,50.2,421,37,421,36.5c-0.3-18.5-17.3-18.9-18-18.9h-34.4
		c2.9,3.3,3.2,7.8,3.2,8l0,52c-0.3,3.8-1.6,6.4-2.7,7.8C369,85.4,395.8,85.4,395.8,85.4z M390.4,30.6h3.9c2.8,0,5.1,0.8,6.6,2.3
		c1.2,1.2,1.9,3,1.9,5s-0.7,3.8-1.9,5h0c-1.5,1.5-3.8,2.3-6.6,2.3h-3.9V30.6z"/>
	<path class="st3" d="M400.9,42.9L400.9,42.9c1.2-1.2,1.9-3,1.9-5s-0.7-3.8-1.9-5c-1.5-1.5-3.8-2.3-6.6-2.3h-3.9v14.6h3.9
		C397.1,45.2,399.4,44.4,400.9,42.9z M392,32.2h2.2c2.4,0,4.3,0.6,5.5,1.8c0.9,0.9,1.4,2.3,1.4,3.9s-0.5,3-1.4,3.9
		c-1.2,1.2-3.1,1.8-5.5,1.8H392V32.2z"/>
	<polygon points="716.3,15.8 714.8,20 713.3,15.8 711.6,15.8 711.6,21.7 712.7,21.7 712.7,17 714.3,21.7 715.2,21.7 716.8,17 
		716.8,21.7 717.9,21.7 717.9,15.8 	"/>
	<polygon points="707.5,21.7 708.7,21.7 708.7,16.8 710.6,16.8 710.6,15.8 705.6,15.8 705.6,16.8 707.5,16.8 	"/>
	<path class="st1" d="M712.1,120.1l-6.2-2.9l3.4-12.3l-11.2,2.4l-0.5-1.7c-1.7-10.2,2.6-18.1,5.2-21.8L704,82
		c0.1-0.1,0.1-0.2,0.2-0.2l0.3-0.4l0,0l0,0l0,0h0c3.5-4.5,5.3-10,5.3-16.2c0-4.5-1-8.6-3-12.2l-2.8-42.6l-8.7,2.5
		c-1.5,0.4-2.2,0.5-4.6,0.1l-3.5-0.5c-3.6-0.5-5.9-0.7-8.6-0.7c-5.4,0-10.3,1-14.5,2.8c-0.1-0.4-0.2-0.8-0.4-1.3
		c-0.2-0.5-1.2-2.9-3.2-4.7l-3.2-2.9l-6.6,5.9h-39.2l0,0h-57.1l0,0h-38.2l0,0h-45.7l2.3,2.4c-4.8-2-10.1-3-15.5-3
		c-12.7,0-24,5.8-31.4,14.9h-1.5c-4.5-10.7-15.3-14-21.6-14h-38.1c-0.5-0.7-1.1-1.3-1.6-1.9c-5.8-6.1-15.1-9.4-26.7-9.4h-52l6.4,12
		c1.4,2.6,2.8,5.4,3.4,8.5h-29.6C255.3,9,243.8,2.6,230.2,2C218,0.5,208.4,4.1,208,4.2l-16.3,6.3l17.2,3c4.9,0.8,11.6,2.9,18.2,7.7
		h-49.1l0.1,0.1c-3.6-1-7.6-1.6-11.9-1.6c-2.7,0-5.1,0.1-9.8,0.8c-4,0.5-6,0.8-8.1,0.8c-3.3,0-4-0.4-4.3-0.6l-10-6v9.2h-2.6
		c-0.5-5-1.7-8.8-4-12.7C123.3,4.1,114.7,0,104.7,0c-7.5,0-13.7,1.8-19.6,5.9C80.3,1.9,74.1,0,66.4,0C61.9,0,57.8,0.7,54,2.3V1.7H0
		l15.9,12c3.6,2.7,4.1,3.1,4.1,11.6v51.3c0,8.5-0.5,8.8-4.1,11.6L0,100.1h146.5c2.9,1,6,1.6,9.2,1.6c4.1,0,7.9-0.8,11.5-2.5l0.1,1
		h49.4l0,0h6.5l3.5,34.6l10-11.2c0.1,0,0.6-0.2,2.4-0.3l2.8-0.2c22.6-1.6,31.8-8.3,40.9-29.9l11.7-25.3v17.3c0,4.2-1.8,7.7-3.6,11
		l-6.3,12.1l54.2,0c4.9,0,13.1-0.8,20.5-5.2c-1.7,3.6-2.7,7.6-2.7,11.8c0,15.8,13.2,28.6,29.5,28.6c6.4,0,12.2-1.9,17-5.2h4.5
		c1,2.6,3.6,4.5,6.6,4.5h10c3,0,5.5-1.9,6.6-4.5h3.8c1,2.6,3.6,4.5,6.6,4.5h10c1.4,0,2.7-0.4,3.8-1.1c1.1,0.7,2.4,1.1,3.8,1.1h10
		c3,0,5.5-1.9,6.6-4.5h6.6c4.8,3.3,10.6,5.2,16.9,5.2c6.4,0,12.2-1.9,17-5.2h4.5c1,2.6,3.6,4.5,6.6,4.5h10c3,0,5.5-1.9,6.6-4.5h3.8
		c1,1.4,3.3,4.5,7.7,4.5h11.2c1.3,0,2.5-0.3,3.5-0.9c1,0.6,2.2,0.9,3.4,0.9h29.4c1.4,0,2.7-0.4,3.8-1.1c1.1,0.7,2.4,1.1,3.8,1.1h10
		c3,0,5.5-1.9,6.6-4.5h4.5l0.3,0.5c1.9,2.7,4.3,4,7.8,4h0.8v0h58l-1.8-5.9h0l-1-3.3L712.1,120.1z M604,101.9c0,0.9-0.8,1.6-1.6,1.6
		h-17.7v5.9H599c0.8,0,1.6,0.7,1.6,1.6v7.8c0,0.9-0.8,1.6-1.6,1.6h-14.3v5.9h17.8c0.9,0,1.6,0.7,1.6,1.6v7.8c0,0.9-0.7,1.6-1.6,1.6
		h-29.4c-0.9,0-1.6-0.7-1.6-1.6V94.1c0-0.9,0.7-1.6,1.6-1.6h29.2c0.8,0,1.6,0.7,1.6,1.6L604,101.9L604,101.9z M551.8,135
		c-0.6-1-5.9-8.8-9.7-14.6h-3.6v15.3c0,0.9-0.8,1.6-1.6,1.6h-10c-0.8,0-1.6-0.7-1.6-1.6V94.1c0-0.9,0.8-1.6,1.6-1.6h10
		c0.8,0,1.6,0.7,1.6,1.6v15.3h3.4c3.3-6.5,7.5-14.8,7.8-15.3c0.6-1.2,1.3-1.6,2.4-1.6h11.4c1.9,0,2.2,0.8,1.5,2
		c-0.4,0.9-7.9,15.7-10.7,20.8c2.6,3.9,12.3,18.5,12.9,19.6c0.8,1.3-0.1,2.2-1.2,2.2H555C553.7,137.3,552.8,136.5,551.8,135z
		 M468.8,137.3h-10c-0.9,0-1.6-0.7-1.6-1.6V94.1c0-0.9,0.7-1.6,1.6-1.6h10c0.9,0,1.6,0.7,1.6,1.6v41.6
		C470.4,136.6,469.7,137.3,468.8,137.3z M439.5,135.7v-15.3h-13.8v15.3c0,0.9-0.7,1.6-1.6,1.6h-10c-0.9,0-1.6-0.7-1.6-1.6V94.1
		c0-0.9,0.7-1.6,1.6-1.6h10c0.9,0,1.6,0.8,1.6,1.6v15.3h13.8V94.1c0-0.9,0.7-1.6,1.6-1.6h10c0.9,0,1.6,0.8,1.6,1.6v41.6
		c0,0.9-0.7,1.6-1.6,1.6h-10C440.2,137.3,439.5,136.6,439.5,135.7z M474.9,114.9c0-12.8,10.9-23.1,24-23.1c11.1,0,20,6.7,22.5,16.8
		c0.2,0.8,0,1.7-1,1.7h-10.1c-0.8,0-1.2-0.4-1.3-0.8c-1.8-4.3-5.2-6.4-10.1-6.4c-6.4,0-11,5.2-11,11.8s4.6,11.8,11,11.8
		c4.9,0,8.4-2.1,10.2-6.6c0.2-0.6,0.7-0.9,1.4-0.9h10c0.9,0,1.2,0.9,1,1.7c-2.5,10.3-11.4,17.1-22.6,17.1
		C485.8,138,474.9,127.6,474.9,114.9z M686.6,16.5L690,17c2.8,0.5,4.3,0.4,6.3-0.2l3.9-1.1l1.9,29.1l-5.9-4.7
		c-5.3-4.3-8.8-5.7-14.1-5.7c-2.5,0-4.6,0.6-5.5,1.5c-0.4,0.4-0.6,0.8-0.6,1.4c0,0.6,0,1.3,5.8,3.6l6.6,2.6
		c11.6,4.6,17.3,11.8,17.3,21.8c0,6.2-2.1,11.7-6.2,15.7c-4.7,4.7-11.7,7.2-20,7.2c-2.2,0-4.6-0.2-7.8-0.6l-6.9-1
		c-2.2-0.4-3.8-0.4-5.3,0.1l-4,1.4l-2.7-32.7l6.4,6.3c5.4,5.4,11,8,17.3,8c2.4,0,4.5-0.6,5.7-1.7c0.6-0.6,0.9-1.2,0.9-1.9
		c0-1.1-0.4-2.4-5.8-4.7l-6.9-2.9c-12-5.1-16.9-11.1-16.9-21c0-6.3,2.2-11.6,6.5-15.4c4.5-4.1,11-6.2,18.7-6.2
		C681,15.8,683.1,16,686.6,16.5z M657.9,11.6c1.4,1.2,2.1,3.1,2.1,3.2c0.7,1.8,0.7,3.6-0.1,5.5c0,0.1-1.2,2.9-4,4.2l-0.7,0.3
		l-1.5-2.4l0.7-0.4c1.9-1.1,1.8-3.6,1.8-3.7c0-0.1-0.1-2.1-1.9-3.2l-0.9-0.6l3.9-3.4L657.9,11.6z M556.3,15.1h-0.5l0.2-0.6
		L556.3,15.1z M513.8,15.7l-2.6,4.9c-0.4,0.7-0.5,1.3-0.5,2.3c0,1,0,1.1,0.8,4.1l5.1,23.2l7.7-24.5c0.6-2.1,0.8-3.3,0.8-4.1
		c0-0.6-0.1-0.8-0.2-1l-2.3-4.7h28.5l-1.8,4.5c-0.1,0.2-0.1,0.5-0.1,0.7c0,0.3,0.4,1.7,0.6,2.5l0.1,0.3c0.2,0.6,0.3,1.2,0.5,1.7
		l8,24.8l4.8-23.3c0.8-3,0.8-3.4,0.8-4.2c0-0.8-0.2-1.5-0.6-2.3l-2.5-4.8h48.2l19.8,34.6V31.2c0-5.4-0.6-7.8-2.4-9.8l-5-5.5h33.4
		l-5.1,5.5c-1.8,2-2.4,4.3-2.4,9.8v40.4c0,5.4,0.6,7.8,2.4,9.8l5.1,5.5h-28.5l-20-35.2v19.9c0,5.4,0.6,7.8,2.4,9.8l5,5.5h-33.4
		l5.1-5.5c1.8-2,2.4-4.3,2.4-9.8V31c0-3.8-0.3-6.1-1.1-7.8c-1.2,2-2.2,4.9-3.9,10.2l-13.1,53.5h-23.2l-9.6-32l-9.7,32h-23
		l-13.8-55.5c-1.6-5.1-3-7.9-5.1-10.1l-5.4-5.6L513.8,15.7L513.8,15.7z M457.5,15c9.8,0,18.9,3.8,25.8,10.7
		c6.9,6.9,10.6,16,10.6,25.7c0,9.7-3.8,18.8-10.6,25.7c-6.9,6.9-16.1,10.7-25.8,10.7s-18.9-3.8-25.8-10.7
		c-6.9-6.9-10.6-16-10.6-25.7C421,31.3,437.4,15,457.5,15z M11.3,96.3l6.9-5.2c4.7-3.5,5.6-5.1,5.6-14.6V25.2
		c0-9.5-0.9-11.1-5.6-14.6l-6.9-5.2h38.9v3.3c4.9-3.5,9.9-5,16.2-5c8.1,0,13.9,2.2,18.4,7c5.9-4.8,12.1-7,19.9-7
		c8.7,0,16,3.5,19.6,9.2c3,5,3.9,9.6,3.9,21.3v42.1c0,9.5,1,11.2,5.6,14.6l6.9,5.2C140.7,96.3,11.3,96.3,11.3,96.3z M291.2,104.3
		l3.2-6.2c1.9-3.6,4.1-7.7,4.1-12.9V50.1l-19.1,41.4c-8.6,20.2-16.7,26.2-37.7,27.7l-2.9,0.2c-3.5,0.2-4.1,0.7-4.8,1.5l-4.4,4.9
		l-3-29.5h-21.2l0,0h-34.7l-0.3-2.4c0-0.3-0.1-0.7-0.1-1c-4.4,3.3-9.2,4.9-14.6,4.9c-6.1,0-11.7-2.2-15.7-6.2c-3.9-3.9-6-9.3-6-15.1
		c0-11.8,8-21.7,20.8-25.8c3.8-1.2,8.1-1.8,13.7-2c-0.2-1.2-0.7-2.3-1.5-3c-1.4-1.5-3.9-2.2-7.2-2.2c-6.1,0-12.5,2.4-17.3,6.5
		l-4.6,3.9V21.3l4.2,2.5c1.2,0.7,2.6,1.1,6.3,1.1c2.3,0,4.5-0.2,8.6-0.8c4.5-0.6,6.7-0.7,9.3-0.7c8.4,0,15.8,2.3,20.7,6.4
		c5.1,4.6,6.7,9.5,6.7,20.2v27.8c0,8.4,0.9,10.1,4.6,13c3.2-2.3,4.1-3.7,4.1-11.1V41.4c0-8.1-1-9-5-11.8l-6.9-4.7h35.3l-0.1,6.1
		c3.1-2.8,7.2-4.6,12-5.5c-9.6-10.8-20.7-14.6-28.1-15.8l-3.6-0.6l3.5-1.3c0.4-0.1,9.2-3.5,20.6-2c19.6,0.7,34.8,15.2,45,43
		c0,0,0.2,0.5,0.5,1.2c1.4-4,2.5-7.3,2.6-7.8l0.3-0.8c2.1-5.8,2.2-6.2,2.2-7.6c0-1.6-0.5-2.7-1.7-3.9l-5-4.8h24.8v-1.2
		c0-5.3-2.2-9.4-4.1-12.9l-3.2-6.1h45.3c10.5,0,18.7,2.8,23.8,8.1c4,4.2,6.1,9.9,5.9,16.3c-0.3,11.8-5.2,18.1-9.6,21.5
		c5.2,3,12.8,9.8,13,24.4c0,1.7-0.3,4.8-0.8,7.5c0.6-1.3,1.1-2.9,1.2-5l0-51.9c0,0-0.4-5.5-4.1-8.2l-2-1.5h39
		c0.2,0,19.3,0.4,19.6,20.5c0,0.1,0.6,14.2-11.8,19.3c3.1,5.1,20.4,32,33.4,33.4l6.5,0.7l-6.5,0.9c-0.1,0-2.5,0.3-6.4,0.3
		c-11.2,0-34.4-2.7-45.8-23.5l0.2,8.7c0,0,1.4,6.7,6.7,9.3l3.1,1.5h-34.2c-1.2,3.3-3.1,6.3-5.5,8.7c-7.3,7.4-17.8,8.5-23.5,8.5
		L291.2,104.3z M362.2,114.9c0-12.8,10.9-23.1,24-23.1c11.1,0,20,6.7,22.5,16.8c0.2,0.8,0,1.7-1,1.7h-10.1c-0.8,0-1.2-0.4-1.3-0.8
		c-1.8-4.3-5.2-6.4-10.1-6.4c-6.4,0-11,5.2-11,11.8s4.6,11.8,11,11.8c4.9,0,8.4-2.1,10.2-6.6c0.2-0.6,0.7-0.9,1.4-0.9h10
		c0.9,0,1.2,0.9,1,1.7c-2.5,10.3-11.4,17.1-22.6,17.1C373.1,138,362.2,127.6,362.2,114.9z M639.5,137.3c-1.9,0-2.6-0.6-3.3-1.6
		l-14.3-21.6v21.6c0,0.9-0.8,1.6-1.6,1.6h-10c-0.9,0-1.6-0.7-1.6-1.6V94.1c0-0.9,0.8-1.6,1.6-1.6h0.5h6.9c1.5,0,2.2,0.5,3.6,2.3
		c1.3,1.8,13.8,20.5,13.8,20.5V94.1c0-0.9,0.7-1.6,1.6-1.6h10c0.9,0,1.6,0.7,1.6,1.6v41.6c0,0.9-0.7,1.6-1.6,1.6H639.5z
		 M692.6,136.9c-4.1-0.5-10.2-1.2-14.7-1.8c-4.5,0.5-10.7,1.3-14.7,1.8l1.1-3.5c0.2-0.7-0.1-1.4-0.6-1.8l-13.2-10.7l2.7-1.3
		c1.2-0.4,0.9-1.1,0.4-2.7l-2-7.3l7.6,1.6c0.7,0.1,1.2-0.4,1.4-0.8l1-3.4l6,6.8c0.9,1.1,2.6,1.1,2.1-1.4l-2.6-13.7l3.5,1.8
		c1,0.5,1.9,0.6,2.5-0.3l4.8-8.9l4.8,8.9c0.5,1,1.5,0.9,2.5,0.3l3.5-1.8l-2.6,13.7c-0.5,2.5,1.2,2.5,2.1,1.4l6-6.8l1,3.4
		c0.1,0.5,0.6,0.9,1.4,0.8l7.6-1.6l-2,7.3c-0.4,1.6-0.8,2.3,0.4,2.7l2.7,1.3l-13.2,10.7c-0.5,0.4-0.8,1.1-0.6,1.8L692.6,136.9z"/>
	<path class="st4" d="M692.1,131.6l13.2-10.7l-2.7-1.3c-1.2-0.4-0.9-1.1-0.4-2.7l2-7.3l-7.6,1.6c-0.7,0.1-1.2-0.4-1.4-0.8l-1-3.4
		l-6,6.8c-0.9,1.1-2.6,1.1-2.1-1.4l2.6-13.7l-3.5,1.8c-1,0.5-1.9,0.6-2.5-0.3l-4.8-8.9l-4.8,8.9c-0.5,1-1.5,0.9-2.5,0.3l-3.5-1.8
		l2.6,13.7c0.5,2.5-1.2,2.5-2.1,1.4l-6-6.8l-1,3.4c-0.1,0.5-0.6,0.9-1.4,0.8l-7.6-1.6l2,7.3c0.4,1.6,0.8,2.3-0.4,2.7l-2.7,1.3
		l13.2,10.7c0.5,0.4,0.8,1.1,0.6,1.8l-1.1,3.5c4.1-0.5,10.2-1.2,14.7-1.8c4.5,0.5,10.7,1.3,14.7,1.8l-1.1-3.5
		C691.3,132.7,691.6,132,692.1,131.6z"/>
	<path class="st2" d="M656.1,14.4c1.7,1.6,1.8,3.8,1.8,3.9c0,0.1,0.1,2-1.1,3.7c1.1-1,1.6-2.2,1.6-2.2c0.6-1.5,0.7-2.9,0.1-4.3
		c0,0-0.5-1.1-1.2-2.1L656.1,14.4z"/>
	<path class="st3" d="M653.4,14.6l0.9,0.6c1.8,1.1,1.9,3.1,1.9,3.2c0,0,0.1,2.5-1.8,3.7l-0.7,0.4l1.5,2.4l0.7-0.3
		c2.8-1.3,4-4.1,4-4.2c0.8-1.9,0.9-3.7,0.1-5.5c0-0.1-0.8-2-2.1-3.2l-0.5-0.5L653.4,14.6z M658.5,15.4c0.6,1.4,0.5,2.8-0.1,4.3
		c0,0-0.5,1.2-1.6,2.2c1.1-1.6,1.1-3.6,1.1-3.7c0-0.1-0.1-2.3-1.8-3.9l1.2-1.1C658,14.3,658.5,15.4,658.5,15.4z"/>
	<path class="st2" d="M483.9,17.3l2.7,2.8c2.3,2.4,3.8,5.4,5.5,10.8l13.5,54.3h20.6l10.9-36l10.8,36h20.7l12.9-52.4
		c2.1-6.5,3.2-9.5,4.9-11.8l0.7-0.9l0.6,0.9c1.4,2.1,1.9,4.7,1.9,9.8v40.6c0,5.9-0.7,8.6-2.8,10.9l-2.6,2.8h26l-2.5-2.8
		c-2.1-2.3-2.8-5-2.8-10.9v-26l22.6,39.7h23.9l-2.6-2.8c-2.1-2.3-2.8-5-2.8-10.9V31.2c0-5.9,0.7-8.5,2.8-10.9v0l2.6-2.8h-26l2.5,2.8
		c2.1,2.3,2.8,5,2.8,10.9v25.2l-22.4-39.1h-44.6l1.3,2.4c0.5,1,0.7,2,0.7,3c0,1-0.1,1.5-0.9,4.6l-6,29.2l-9.9-30.7
		c-0.1-0.5-0.3-1.1-0.5-1.7l-0.1-0.3c-0.4-1.3-0.7-2.4-0.7-2.9c0-0.5,0.1-1,0.3-1.4l0.9-2.3h-23.6l1.2,2.4c0.3,0.5,0.4,1,0.4,1.7
		c0,1-0.3,2.3-0.9,4.6l-9.5,30.4l-6.4-29.1c-0.9-3-0.9-3.2-0.9-4.5c0-1.3,0.2-2.2,0.7-3.1l1.3-2.5L483.9,17.3L483.9,17.3z"/>
	<path class="st3" d="M490.5,31.4l13.8,55.5h23l9.7-32l9.6,32h23.2l13.1-53.5c1.7-5.3,2.7-8.2,3.9-10.2c0.8,1.7,1.1,4,1.1,7.8v40.6
		c0,5.4-0.6,7.8-2.4,9.8l-5.1,5.5h33.4l-5-5.5c-1.8-2-2.4-4.3-2.4-9.8V51.7l20,35.2h28.5l-5.1-5.5c-1.8-2-2.4-4.4-2.4-9.8V31.2
		c0-5.4,0.6-7.8,2.4-9.8l5.1-5.5h-33.4l5,5.5c1.8,2,2.4,4.4,2.4,9.8v19.1l-19.8-34.6H561l2.5,4.8c0.4,0.7,0.6,1.5,0.6,2.3
		c0,0.8-0.1,1.1-0.8,4.2l-4.8,23.3l-8-24.8c-0.1-0.5-0.3-1.1-0.5-1.7l-0.1-0.3c-0.2-0.8-0.6-2.2-0.6-2.5c0-0.2,0-0.5,0.1-0.7
		l1.8-4.5h-28.5l2.3,4.7c0.1,0.2,0.2,0.5,0.2,1c0,0.8-0.3,2-0.8,4.1l-7.7,24.5L511.5,27c-0.8-3-0.8-3-0.8-4.1c0-1,0.1-1.6,0.5-2.3
		l2.6-4.9H480l5.4,5.6C487.5,23.5,489,26.3,490.5,31.4z M509.7,19.8c-0.5,0.9-0.7,1.8-0.7,3.1c0,1.2,0,1.4,0.9,4.5l6.4,29.1
		l9.5-30.4c0.6-2.3,0.9-3.6,0.9-4.6c0-0.7-0.1-1.2-0.4-1.7l-1.2-2.4h23.6l-0.9,2.3c-0.2,0.4-0.3,0.9-0.3,1.4c0,0.5,0.3,1.6,0.7,2.9
		l0.1,0.3c0.2,0.6,0.3,1.2,0.5,1.7l9.9,30.7l6-29.2c0.8-3.1,0.9-3.6,0.9-4.6c0-1.1-0.2-2.1-0.7-3l-1.3-2.4h44.6l22.4,39.1V31.2
		c0-5.9-0.7-8.5-2.8-10.9l-2.5-2.8h26l-2.6,2.8v0c-2.1,2.3-2.8,5-2.8,10.9v40.4c0,5.9,0.7,8.5,2.8,10.9l2.6,2.8h-23.9l-22.6-39.7v26
		c0,5.9,0.7,8.6,2.8,10.9l2.5,2.8h-26l2.6-2.8c2.1-2.3,2.8-4.9,2.8-10.9V31c0-5.1-0.5-7.7-1.9-9.8l-0.6-0.9l-0.7,0.9
		c-1.7,2.2-2.8,5.3-4.9,11.8l-12.9,52.4h-20.7l-10.8-36l-10.9,36h-20.6L492.1,31c-1.7-5.4-3.2-8.4-5.5-10.8l-2.7-2.8H511L509.7,19.8
		z"/>
	<path class="st2" d="M661,23.2c-3.9,3.5-5.9,8.5-5.9,14.2c0,9,4.6,14.7,15.9,19.5l6.9,2.9c5,2.2,6.8,3.8,6.8,6.2
		c0,1.1-0.5,2.2-1.5,3.1c-1.5,1.4-3.9,2.1-6.8,2.1c-6.7,0-12.7-2.8-18.4-8.4l-3.2-3.2l2.2,26.3l2-0.7c0.9-0.3,1.8-0.5,2.8-0.5
		c1,0,2.1,0.1,3.3,0.3l6.8,1c3.1,0.4,5.5,0.6,7.6,0.6c7.9,0,14.4-2.3,18.9-6.8c3.7-3.7,5.7-8.8,5.7-14.6c0-9.3-5.3-15.9-16.3-20.3
		l-6.6-2.6c-5.8-2.3-6.8-3.3-6.8-5.1c0-1,0.3-1.9,1-2.6c1.3-1.3,3.6-2,6.6-2c5.7,0,9.6,1.5,15.2,6.1l3,2.4l-1.6-23.4l-2,0.6
		c-2.3,0.6-3.9,0.8-7,0.2l-3.5-0.5c-3.4-0.5-5.4-0.7-7.7-0.7C671.2,17.4,665.1,19.4,661,23.2z"/>
	<path class="st3" d="M659.9,22c-4.2,3.9-6.5,9.2-6.5,15.4c0,9.8,4.9,15.9,16.9,21l6.9,2.9c5.3,2.3,5.8,3.6,5.8,4.7
		c0,0.7-0.3,1.3-0.9,1.9c-1.2,1.1-3.2,1.7-5.7,1.7c-6.2,0-11.9-2.6-17.3-8l-6.4-6.3l2.7,32.7l4-1.4c1.5-0.5,3.1-0.5,5.3-0.1l6.9,1
		c3.2,0.4,5.6,0.6,7.8,0.6c8.3,0,15.3-2.5,20-7.2c4.1-4.1,6.2-9.5,6.2-15.7c0-10-5.7-17.1-17.3-21.8l-6.6-2.6
		c-5.8-2.3-5.8-3-5.8-3.6c0-0.6,0.2-1,0.6-1.4c0.9-0.9,3-1.5,5.5-1.5c5.3,0,8.9,1.4,14.1,5.7l5.9,4.7l-1.9-29.1l-3.9,1.1
		c-2,0.6-3.5,0.7-6.3,0.2l-3.5-0.5c-3.5-0.5-5.5-0.7-8-0.7C670.8,15.8,664.4,18,659.9,22z M686.3,18.1l3.5,0.5
		c3.1,0.5,4.7,0.4,7-0.2l2-0.6l1.6,23.4l-3-2.4c-5.6-4.5-9.4-6.1-15.2-6.1c-3,0-5.4,0.7-6.6,2c-0.7,0.7-1,1.6-1,2.6
		c0,1.8,1,2.8,6.8,5.1l6.6,2.6c11,4.4,16.3,11,16.3,20.3c0,5.8-2,10.8-5.7,14.6c-4.4,4.4-11,6.8-18.9,6.8c-2.2,0-4.5-0.2-7.6-0.6
		l-6.8-1c-1.2-0.2-2.3-0.3-3.3-0.3c-1.1,0-1.9,0.1-2.8,0.5l-2,0.7l-2.2-26.3l3.2,3.2c5.7,5.7,11.7,8.4,18.4,8.4
		c2.8,0,5.2-0.8,6.8-2.1c1-0.9,1.5-1.9,1.5-3.1c0-2.4-1.8-4-6.8-6.2l-6.9-2.9C659.6,52.1,655,46.5,655,37.5c0-5.8,2.1-10.7,5.9-14.2
		c4.2-3.8,10.3-5.8,17.6-5.8C680.9,17.4,682.9,17.6,686.3,18.1z"/>
	<path class="st2" d="M361.1,94.6c2.4-2.4,4.1-5.3,5.3-8.6c0.7-2.2,1.6-8.4,1.6-10.9c-0.2-14.1-7.3-20.6-13.3-23.6l-1.2-0.6l1.2-0.8
		c4.3-2.9,9.6-9,9.9-21c0.2-6-1.7-11.3-5.4-15.1c-4.8-5-12.6-7.6-22.6-7.6h-42.6l2,3.7c2,3.8,4.3,8,4.3,13.7V25h18.3l-7.8,5.1
		c-4,2.6-5.1,3.9-9.3,13.9l-1.2,2.6v38.6c0,5.6-2.3,9.9-4.3,13.6l-2,3.8l2.8,0h42.2C344.2,102.7,354.2,101.6,361.1,94.6z
		 M344.5,73.1c0,3.7-0.9,6.5-2.7,8.4c-2,2.1-6.6,3.4-12.3,3.4h-6V61.4h6c5.7,0,10.3,1.3,12.3,3.4C343.6,66.8,344.5,69.5,344.5,73.1z
		 M327.6,22.4c6.1,0,9.3,0.1,12.5,3.3c1.6,1.5,2.4,3.9,2.4,7.3c0,3.2-0.8,5.6-2.4,7.3l0,0c-2,2.1-6.5,3.3-12.5,3.3h-4.2V22.4H327.6z
		"/>
	<path class="st3" d="M367.7,87.1H402l-3.1-1.5c-5.3-2.6-6.6-9.3-6.7-9.3l-0.2-8.7c11.4,20.8,34.6,23.5,45.8,23.5
		c3.8,0,6.3-0.3,6.4-0.3l6.5-0.9l-6.5-0.7c-13-1.4-30.2-28.3-33.4-33.4c12.4-5.1,11.8-19.2,11.8-19.3c-0.3-20.1-19.4-20.5-19.6-20.5
		h-39l2,1.5c3.8,2.8,4.1,8.2,4.1,8.2l0,51.9c-0.2,2.1-0.7,3.7-1.2,5c0.5-2.7,0.8-5.8,0.8-7.5c-0.2-14.6-7.8-21.4-13-24.4
		c4.4-3.4,9.2-9.8,9.6-21.5c0.2-6.5-1.8-12.1-5.9-16.3c-5.1-5.3-13.3-8.1-23.8-8.1h-45.3l3.2,6.1c1.9,3.6,4.1,7.7,4.1,12.9V25h-24.8
		l5,4.8c1.3,1.2,1.7,2.2,1.7,3.9c0,1.4-0.1,1.8-2.2,7.6l-0.3,0.8c-0.2,0.5-1.3,3.8-2.6,7.8c-0.3-0.7-0.4-1.1-0.5-1.2
		c-10.2-27.8-25.3-42.3-45-43c-11.4-1.5-20.2,1.8-20.6,2l-3.5,1.3l3.6,0.6c7.3,1.3,18.5,5.1,28.1,15.8c-4.8,0.8-8.9,2.7-12,5.5
		l0.1-6.1h-35.3l6.9,4.7c4.1,2.8,5,3.7,5,11.8v38.4c0,7.4-0.8,8.8-4.1,11.1c-3.7-2.9-4.6-4.7-4.6-13V50.1c0-10.8-1.6-15.7-6.7-20.2
		c-4.9-4.1-12.2-6.4-20.7-6.4c-2.6,0-4.8,0.1-9.3,0.7c-4.1,0.6-6.3,0.8-8.6,0.8c-3.6,0-5.1-0.4-6.3-1.1l-4.2-2.5v32.6l4.6-3.9
		c4.8-4.1,11.2-6.5,17.3-6.5c3.3,0,5.8,0.8,7.2,2.2c0.8,0.8,1.3,1.8,1.5,3c-5.6,0.1-9.9,0.8-13.7,2C142,54.8,134,64.7,134,76.5
		c0,5.9,2.1,11.3,6,15.1c4,4,9.5,6.2,15.7,6.2c5.4,0,10.2-1.6,14.6-4.9c0,0.3,0.1,0.6,0.1,1l0.3,2.4h34.7l0,0h21.2l3,29.5l4.4-4.9
		c0.7-0.8,1.3-1.3,4.8-1.5l2.9-0.2c21-1.5,29.2-7.4,37.7-27.7l19.1-41.4v35.1c0,5.2-2.2,9.3-4.1,12.9l-3.2,6.2l47.6,0
		c5.6,0,16.1-1.1,23.5-8.5C364.7,93.3,366.5,90.4,367.7,87.1z M293.9,102.7l2-3.8c2-3.8,4.3-8.1,4.3-13.6V46.6l1.2-2.6
		c4.2-10,5.3-11.3,9.3-13.9l7.8-5.1h-18.3v-1.2c0-5.7-2.3-10-4.3-13.7l-2-3.7h42.6c10,0,17.9,2.6,22.6,7.6c3.7,3.9,5.6,9.1,5.4,15.2
		c-0.4,12-5.6,18.1-9.9,21l-1.2,0.8l1.2,0.6c6,3,13.1,9.5,13.3,23.6c0,2.5-0.9,8.7-1.6,10.9c-1.2,3.3-2.9,6.2-5.3,8.6
		c-6.9,7-16.9,8.1-22.3,8.1h-42.2L293.9,102.7z M232.5,119.6l-1.3,1.4l-2.3-22.7l1.5,1c3.7,2.4,6.2,3.5,10.6,3.3
		c11.5-0.6,16.5-10,20.9-18.4c0.6-1.2,1.2-2.3,1.8-3.4l0.2-0.4l-11.2-31.5c-1.3-4.1-2.9-7.8-4.6-11.2V25h-4.2
		c-1.3,0-2.6,0.1-3.8,0.2c-8.5-10.1-18.5-14.6-26.2-16.6c3.6-0.8,9.3-1.6,15.8-0.8c18.8,0.7,33.4,14.7,43.2,41.7c0,0,1,2.4,1.3,3.8
		l0.8,3.3l1.1-3.2c1.9-5.2,3.4-10,3.7-10.7c2.3-6.6,2.5-7.2,2.5-9.1c0-2.2-0.7-3.8-2.4-5.4l-1.3-1.3h32.8l-2.1,1.4
		c-4.4,2.9-5.6,4.3-10.1,14.8l-21.9,47.6c-8.3,19.6-15.7,25-36,26.4l-2.9,0.2C235.2,117.6,233.8,118.1,232.5,119.6z M170.4,90.2
		c-4.4,3.8-9.2,5.6-14.7,5.6c-5.6,0-10.6-2-14.2-5.6c-3.5-3.5-5.4-8.4-5.4-13.7c0-10.9,7.4-20,19.4-23.8c3.9-1.2,8.3-1.8,14.3-1.9
		l1.1,0l-0.1-1.1c-0.1-2.2-0.9-4.1-2.2-5.4c-1.8-1.9-4.8-2.8-8.7-2.8c-6.5,0-13.5,2.6-18.6,7l-1.2,1V24.9l1.1,0.7
		c1.5,0.9,3.2,1.4,7.3,1.4c2.4,0,4.7-0.3,8.9-0.8c4.4-0.6,6.5-0.7,9.1-0.7c7.9,0,14.8,2.1,19.3,5.9c4.5,4.1,6,8.6,6,18.7v27.8
		c0,8.8,1.1,11.1,4.9,14.2l-3.1,2.1h-20.9l-0.1-0.7c-0.2-1.1-0.3-2-0.3-2.8l-0.2-1.9L170.4,90.2z M204.4,79.8V41.4
		c0-8.5-1.2-10.3-5.9-13.5l-1.4-1h26.5l-0.1,9.4l1.8-2.1c5.1-5.9,12.9-7.2,18.6-7.2h2.2v19.5l-0.9-0.5c-2.8-1.6-3.7-2-5.8-2.5
		c-3.7-0.9-9.9,1.4-11.9,3.8c-2.5,2.8-3.2,5.6-3.2,12.2l0.1,20.2c0,8.4,1.2,10.3,5.9,13.5l1.4,1h-34.7l1.4-1
		C203.2,90.1,204.4,88.4,204.4,79.8z M231.5,91.6c-4-2.7-5-3.7-5-11.8l-0.1-20.2c0-6.1,0.6-8.5,2.7-10.9c1.5-1.8,7-3.9,9.8-3.1
		c1.9,0.5,2.5,0.7,5.3,2.3l4,2.3v-7.5c0.9,2.2,1.8,4.5,2.6,6.9l10.9,30.6c-0.5,1-1.1,2-1.6,3.1c-4.4,8.2-8.9,16.8-19.2,17.3
		c-4,0.2-6-0.7-9.4-2.9l-1.9-1.2h8.9L231.5,91.6z M371.7,77.6l0-52c0-0.2-0.3-4.7-3.2-8h34.4c0.7,0,17.7,0.4,18,18.9
		c0,0.6,0.6,13.7-11.6,18.1l-0.9,0.3l0.5,0.8c0.7,1.2,16.4,27.4,30.5,33.7c-10.5,0.3-36.7-1.6-47.5-25.8l-1.6-3.6l0.3,16.4
		c0.1,0.3,1.1,5.6,5.2,9.1H369C370.1,84,371.4,81.5,371.7,77.6z"/>
	<path class="st3" d="M323.5,61.4v23.5h6c5.7,0,10.3-1.3,12.3-3.4c1.8-1.9,2.7-4.7,2.7-8.4c0-3.7-0.9-6.3-2.7-8.2
		c-2-2.2-6.7-3.4-12.3-3.4C329.5,61.4,323.5,61.4,323.5,61.4z M325.1,83.3V63.1h4.4c5.1,0,9.5,1.1,11.2,2.9c1.5,1.6,2.2,3.9,2.2,7.1
		c0,3.3-0.7,5.7-2.3,7.3c-1.7,1.8-6.1,2.9-11.1,2.9C329.5,83.3,325.1,83.3,325.1,83.3z"/>
	<path class="st3" d="M323.5,43.7h4.2c5.9,0,10.5-1.2,12.5-3.3l0,0c1.6-1.7,2.4-4.1,2.4-7.3c0-3.4-0.8-5.7-2.4-7.3
		c-3.3-3.2-6.4-3.3-12.5-3.3h-4.2V43.7z M327.6,24.1c6,0,8.6,0.1,11.4,2.9c1.3,1.2,1.9,3.2,1.9,6.1c0,2.8-0.6,4.8-2,6.2
		c-1.6,1.7-6,2.8-11.3,2.8h-2.5v-18C325.1,24.1,327.6,24.1,327.6,24.1z"/>
	<path class="st2" d="M422.6,51.4c0,9.3,3.6,18,10.2,24.5c6.6,6.6,15.3,10.2,24.7,10.2s18.1-3.6,24.7-10.2
		c6.6-6.6,10.2-15.3,10.2-24.5c0-9.3-3.6-18-10.2-24.5c-6.6-6.6-15.4-10.2-24.7-10.2C438.3,16.7,422.6,32.2,422.6,51.4z M457.1,35.4
		c4.3,0,8.4,1.7,11.4,4.7c3,3,4.7,7.1,4.7,11.3c0,8.9-7.2,16.1-16.1,16.1c-4.3,0-8.4-1.7-11.4-4.7c-3-3-4.7-7.1-4.7-11.3
		c0-4.3,1.7-8.3,4.7-11.3C448.7,37,452.8,35.4,457.1,35.4z"/>
	<path class="st3" d="M421,51.4c0,9.7,3.8,18.8,10.6,25.7c6.9,6.9,16,10.7,25.8,10.7s18.9-3.8,25.8-10.7c6.9-6.9,10.6-16,10.6-25.7
		c0-9.7-3.8-18.8-10.6-25.7c-6.9-6.9-16.1-10.7-25.8-10.7C437.4,15,421,31.3,421,51.4z M457.5,16.7c9.3,0,18.1,3.6,24.7,10.2
		c6.6,6.6,10.2,15.3,10.2,24.5c0,9.3-3.6,18-10.2,24.5c-6.6,6.6-15.4,10.2-24.7,10.2s-18.1-3.6-24.7-10.2
		c-6.6-6.5-10.2-15.3-10.2-24.5C422.6,32.2,438.3,16.7,457.5,16.7z"/>
	<path class="st3" d="M445.7,62.8c3,3.1,7.1,4.7,11.4,4.7c8.9,0,16.1-7.2,16.1-16.1c0-4.3-1.7-8.3-4.7-11.3c-3.1-3-7.1-4.7-11.4-4.7
		c-4.3,0-8.4,1.7-11.4,4.7c-3,3-4.7,7.1-4.7,11.3C441,55.7,442.6,59.8,445.7,62.8z M457.1,37c3.9,0,7.5,1.5,10.3,4.3
		c2.7,2.7,4.2,6.3,4.2,10.2c0,8-6.5,14.5-14.5,14.5c-3.9,0-7.5-1.5-10.3-4.3c-2.7-2.7-4.2-6.3-4.2-10.2c0-3.9,1.5-7.5,4.2-10.2
		C449.5,38.5,453.2,37,457.1,37z"/>
	<path class="st4" d="M172.1,90.9c0.1,0.8,0.2,1.6,0.3,2.8l0.1,0.7h20.9l3.1-2.1c-3.8-3.1-4.9-5.4-4.9-14.2V50.1
		c0-10.1-1.5-14.6-6-18.7c-4.5-3.8-11.4-5.9-19.3-5.9c-2.5,0-4.6,0.1-9.1,0.7c-4.2,0.6-6.4,0.8-8.9,0.8c-4.1,0-5.9-0.5-7.3-1.4
		l-1.1-0.7v24.5l1.2-1c5.1-4.4,12.1-7,18.6-7c3.8,0,6.8,1,8.7,2.8c1.3,1.3,2.1,3.2,2.2,5.4l0.1,1.1l-1.1,0c-6,0.1-10.4,0.7-14.3,1.9
		c-11.9,3.8-19.4,13-19.4,23.8c0,5.3,1.9,10.2,5.4,13.7c3.6,3.6,8.6,5.6,14.2,5.6c5.5,0,10.3-1.8,14.7-5.6l1.5-1.3L172.1,90.9z
		 M157,73.5c0-4.9,4.9-8.4,12.7-9l1.1-0.1v10.5l-0.3,0.3c-2.1,2.3-5.5,3.9-8,3.9c-1.5,0-2.9-0.6-3.9-1.6C157.5,76.4,157,75,157,73.5
		z"/>
	<path class="st3" d="M170.5,75.1l0.3-0.3V64.4l-1.1,0.1c-7.8,0.7-12.7,4.1-12.7,9c0,1.5,0.6,2.9,1.6,4c1,1.1,2.4,1.6,3.9,1.6
		C165,79.1,168.3,77.4,170.5,75.1z M168.7,66.6V74c-1.7,1.7-4.4,3-6.2,3c-0.9,0-1.8-0.4-2.5-1c-0.7-0.7-1-1.6-1-2.5
		C159,69.9,162.7,67.3,168.7,66.6z"/>
	<path class="st4" d="M241.5,117.2c20.3-1.4,27.7-6.9,36-26.4l21.9-47.6c4.4-10.5,5.7-11.9,10.1-14.8l2.1-1.4h-32.8l1.3,1.3
		c1.7,1.6,2.4,3.1,2.4,5.4c0,1.8-0.2,2.5-2.5,9.1c-0.2,0.7-1.8,5.5-3.7,10.7l-1.1,3.2l-0.8-3.3c-0.4-1.4-1.3-3.8-1.3-3.8
		c-9.9-27-24.4-41-43.2-41.7c-6.6-0.9-12.3,0-15.8,0.8c7.6,2,17.6,6.5,26.2,16.6c1.2-0.1,2.5-0.2,3.8-0.2h4.2v12.6
		c1.7,3.4,3.2,7.1,4.6,11.2l11.2,31.5l-0.2,0.4c-0.6,1.1-1.2,2.3-1.8,3.4c-4.4,8.3-9.4,17.8-20.9,18.4c-4.5,0.2-7-0.9-10.6-3.3
		l-1.5-1l2.3,22.7l1.3-1.4c1.3-1.5,2.7-2,6.2-2.2L241.5,117.2z"/>
	<path class="st4" d="M17.4,94.2h39.7l-2-1.5c-5.4-4-6.4-6.4-6.4-16.2V36.7c0-9.5,2.6-13.5,8.6-13.5c2.6,0,4.2,0.5,5.2,1.5
		c1.6,1.6,2.2,4.8,2.2,11.3v58.3H96l-2-1.5c-5.1-3.8-6.4-5.9-6.4-16.2V35.9c0-9.1,2.5-12.8,8.6-12.8c2.8,0,4.9,1.1,6,3.1
		c0.9,1.7,1.1,2.2,1.1,8.8v59.2h31.3l-2-1.5c-5.1-3.8-6.4-5.9-6.4-16.2V34.4c0-11.3-0.8-15.6-3.6-20.3c-3.2-5.2-9.9-8.3-17.9-8.3
		C97,5.8,91.2,8,85.4,13l-0.8,0.7l-0.7-0.8c-4.1-4.8-9.7-7.1-17.5-7.1c-6.6,0-11.4,1.7-16.6,5.8L48.2,13V7.5H17.4l2,1.5
		c5.2,3.9,6.4,5.9,6.4,16.2v51.3c0,10.3-1.2,12.3-6.4,16.2L17.4,94.2z"/>
	<path class="st3" d="M133.7,91.1c-4.6-3.5-5.6-5.1-5.6-14.6V34.4c0-11.7-0.8-16.3-3.9-21.3c-3.6-5.8-10.9-9.2-19.6-9.2
		c-7.8,0-13.9,2.2-19.9,7c-4.4-4.8-10.3-7-18.4-7c-6.3,0-11.3,1.5-16.2,5V5.4H11.3l6.9,5.2c4.7,3.5,5.6,5.1,5.6,14.6v51.3
		c0,9.5-0.9,11.1-5.6,14.6l-6.9,5.2h129.3L133.7,91.1z M25.8,76.5V25.2c0-10.3-1.2-12.3-6.4-16.2l-2-1.5h30.8V13l1.7-1.3
		c5.2-4.1,10-5.8,16.6-5.8c7.8,0,13.4,2.2,17.5,7.1l0.7,0.8l0.8-0.7c5.9-5,11.6-7.2,19.3-7.2c8,0,14.7,3.1,17.9,8.3
		c2.8,4.7,3.6,9,3.6,20.3v42.1c0,10.3,1.3,12.4,6.4,16.2l2,1.5h-31.3V35c0-6.6-0.2-7.1-1.1-8.8c-1.1-2-3.2-3.1-6-3.1
		c-6.1,0-8.6,3.7-8.6,12.8v40.6c0,10.3,1.3,12.4,6.4,16.2l2,1.5H64.7V35.9c0-6.4-0.6-9.7-2.2-11.3c-1-1-2.6-1.5-5.2-1.5
		c-6,0-8.6,4-8.6,13.5v39.8c0,9.8,1,12.2,6.4,16.2l2,1.5H17.4l2-1.5C24.6,88.8,25.8,86.8,25.8,76.5z M56.3,91.1
		c-4.8-3.5-5.6-5.4-5.6-14.6V36.7c0-11.5,4.1-11.5,6.5-11.5c2,0,3.2,0.3,3.8,0.9c1.4,1.4,1.6,6.3,1.6,9.8v59.8L56.3,91.1z
		 M95.2,91.1c-4.6-3.5-5.6-5.1-5.6-14.6V35.9c0-9.9,3.1-10.7,6.5-10.7c2,0,3.5,0.7,4.2,2c0.7,1.3,0.8,1.5,0.8,7.8v60.5L95.2,91.1z"
		/>
	<path class="st4" d="M198.5,93.3l-1.4,1h34.7l-1.4-1c-4.7-3.2-5.9-5.1-5.9-13.5l-0.1-20.2c0-6.6,0.7-9.4,3.2-12.2
		c2-2.4,8.2-4.7,11.9-3.8c2.1,0.6,3,0.9,5.8,2.5l0.9,0.5V27h-2.2c-5.7,0-13.5,1.2-18.6,7.2l-1.8,2.1l0.1-9.4h-26.5l1.4,1
		c4.7,3.2,5.9,5,5.9,13.5v38.4C204.4,88.4,203.2,90.1,198.5,93.3z"/>
	<path class="st3" d="M408.7,120.9c0.2-0.8-0.1-1.7-1-1.7h-10c-0.7,0-1.2,0.3-1.4,0.9c-1.7,4.5-5.2,6.6-10.2,6.6
		c-6.4,0-11-5.2-11-11.8s4.6-11.8,11-11.8c4.9,0,8.3,2,10.1,6.4c0.1,0.4,0.6,0.8,1.3,0.8h10.1c1,0,1.2-0.8,1-1.7
		c-2.6-10.2-11.5-16.8-22.5-16.8c-13,0-24,10.3-24,23.1c0,12.8,10.9,23.1,24,23.1C397.3,138,406.2,131.2,408.7,120.9z"/>
	<path class="st3" d="M451.1,137.3c0.9,0,1.6-0.7,1.6-1.6V94.1c0-0.8-0.7-1.6-1.6-1.6h-10c-0.9,0-1.6,0.7-1.6,1.6v15.3h-13.8V94.1
		c0-0.8-0.7-1.6-1.6-1.6h-10c-0.9,0-1.6,0.7-1.6,1.6v41.6c0,0.9,0.7,1.6,1.6,1.6h10c0.9,0,1.6-0.7,1.6-1.6v-15.3h13.8v15.3
		c0,0.9,0.7,1.6,1.6,1.6L451.1,137.3L451.1,137.3z"/>
	<path class="st3" d="M470.4,94.1c0-0.9-0.7-1.6-1.6-1.6h-10c-0.9,0-1.6,0.7-1.6,1.6v41.6c0,0.9,0.7,1.6,1.6,1.6h10
		c0.9,0,1.6-0.7,1.6-1.6V94.1z"/>
	<path class="st3" d="M498.8,138c11.2,0,20.1-6.8,22.6-17.1c0.2-0.8-0.1-1.7-1-1.7h-10c-0.7,0-1.2,0.3-1.4,0.9
		c-1.7,4.5-5.2,6.6-10.2,6.6c-6.4,0-11-5.2-11-11.8s4.6-11.8,11-11.8c4.9,0,8.3,2,10.1,6.4c0.1,0.4,0.6,0.8,1.3,0.8h10.1
		c1,0,1.1-0.8,1-1.7c-2.6-10.2-11.4-16.8-22.5-16.8c-13,0-24,10.3-24,23.1C474.9,127.6,485.8,138,498.8,138z"/>
	<path class="st3" d="M566.2,137.3c1.1,0,1.9-1,1.2-2.2c-0.6-1.1-10.3-15.7-12.9-19.6c2.8-5.1,10.2-20,10.7-20.8
		c0.7-1.3,0.3-2-1.5-2h-11.4c-1.2,0-1.8,0.4-2.4,1.6c-0.3,0.5-4.5,8.8-7.8,15.3h-3.4V94.1c0-0.9-0.8-1.6-1.6-1.6h-10
		c-0.8,0-1.6,0.7-1.6,1.6v41.6c0,0.9,0.8,1.6,1.6,1.6h10c0.8,0,1.6-0.7,1.6-1.6v-15.3h3.6c3.8,5.8,9,13.6,9.7,14.6
		c1,1.5,1.9,2.3,3.3,2.3L566.2,137.3L566.2,137.3z"/>
	<path class="st3" d="M602.4,92.5h-29.2c-0.9,0-1.6,0.7-1.6,1.6v41.6c0,0.9,0.7,1.6,1.6,1.6h29.4c0.9,0,1.6-0.7,1.6-1.6v-7.8
		c0-0.9-0.7-1.6-1.6-1.6h-17.8v-5.9H599c0.8,0,1.6-0.7,1.6-1.6V111c0-0.9-0.8-1.6-1.6-1.6h-14.3v-5.9h17.7c0.8,0,1.6-0.7,1.6-1.6
		v-7.8C604,93.2,603.2,92.5,602.4,92.5z"/>
	<path class="st3" d="M646.6,137.3c0.9,0,1.6-0.7,1.6-1.6V94.1c0-0.9-0.7-1.6-1.6-1.6h-10c-0.9,0-1.6,0.7-1.6,1.6v21.2
		c0,0-12.5-18.7-13.8-20.5c-1.3-1.8-2-2.3-3.6-2.3h-6.9h-0.5c-0.8,0-1.6,0.7-1.6,1.6v41.6c0,0.9,0.7,1.6,1.6,1.6h10
		c0.8,0,1.6-0.7,1.6-1.6v-21.6l14.3,21.6c0.7,1,1.4,1.6,3.3,1.6H646.6z"/>
</g>
</svg>
